<?xml version="1.0" encoding="UTF-8"?>
<svg xmlns="http://www.w3.org/2000/svg" width="900" height="300"
     viewBox="0 0 900 300" role="img" aria-labelledby="activity-title activity-desc">
    <title id="activity-title">ZedingZhang GitHub contribution activity for the last 31 days</title>
    <desc id="activity-desc">A line graph of daily public GitHub contribution counts from 2026-07-24 through 2026-08-23.</desc>
    <defs>
        <linearGradient id="activity-area-light" x1="0" y1="0" x2="0" y2="1">
            <stop offset="0%" stop-color="#54AEFF" stop-opacity="0.45" />
            <stop offset="100%" stop-color="#54AEFF" stop-opacity="0.04" />
        </linearGradient>
    </defs>
    <g font-family="-apple-system, BlinkMacSystemFont, 'Segoe UI', Helvetica, Arial, sans-serif">
        
        <line x1="54" y1="24" x2="876" y2="24"
              stroke="#D0D7DE" stroke-width="1" stroke-dasharray="4 5" opacity="0.7" />
        <text x="42" y="28" text-anchor="end"
              fill="#57606A" font-size="12">20</text>
        <line x1="54" y1="81.5" x2="876" y2="81.5"
              stroke="#D0D7DE" stroke-width="1" stroke-dasharray="4 5" opacity="0.7" />
        <text x="42" y="85.5" text-anchor="end"
              fill="#57606A" font-size="12">15</text>
        <line x1="54" y1="139" x2="876" y2="139"
              stroke="#D0D7DE" stroke-width="1" stroke-dasharray="4 5" opacity="0.7" />
        <text x="42" y="143" text-anchor="end"
              fill="#57606A" font-size="12">10</text>
        <line x1="54" y1="196.5" x2="876" y2="196.5"
              stroke="#D0D7DE" stroke-width="1" stroke-dasharray="4 5" opacity="0.7" />
        <text x="42" y="200.5" text-anchor="end"
              fill="#57606A" font-size="12">5</text>
        <line x1="54" y1="254" x2="876" y2="254"
              stroke="#D0D7DE" stroke-width="1" stroke-dasharray="4 5" opacity="0.7" />
        <text x="42" y="258" text-anchor="end"
              fill="#57606A" font-size="12">0</text>
        <path d="M 54 254 L 54 208 L 81.4 254 L 108.8 93 L 136.2 24 L 163.6 254 L 191 162 L 218.4 93 L 245.8 139 L 273.2 254 L 300.6 254 L 328 254 L 355.4 242.5 L 382.8 254 L 410.2 254 L 437.6 219.5 L 465 254 L 492.4 254 L 519.8 231 L 547.2 254 L 574.6 254 L 602 208 L 629.4 254 L 656.8 242.5 L 684.2 254 L 711.6 254 L 739 231 L 766.4 173.5 L 793.8 231 L 821.2 208 L 848.6 219.5 L 876 150.5 L 876 254 Z" fill="url(#activity-area-light)" />
        <path d="M 54 208 L 81.4 254 L 108.8 93 L 136.2 24 L 163.6 254 L 191 162 L 218.4 93 L 245.8 139 L 273.2 254 L 300.6 254 L 328 254 L 355.4 242.5 L 382.8 254 L 410.2 254 L 437.6 219.5 L 465 254 L 492.4 254 L 519.8 231 L 547.2 254 L 574.6 254 L 602 208 L 629.4 254 L 656.8 242.5 L 684.2 254 L 711.6 254 L 739 231 L 766.4 173.5 L 793.8 231 L 821.2 208 L 848.6 219.5 L 876 150.5" fill="none" stroke="#0969DA" stroke-width="3"
              stroke-linecap="round" stroke-linejoin="round" />
        
        <circle cx="54" cy="208" r="3.2"
                fill="#0969DA" stroke="#0969DA" stroke-width="1">
            <title>2026-07-24: 4 contributions</title>
        </circle>
        <circle cx="81.4" cy="254" r="3.2"
                fill="#0969DA" stroke="#0969DA" stroke-width="1">
            <title>2026-07-25: 0 contributions</title>
        </circle>
        <circle cx="108.8" cy="93" r="3.2"
                fill="#0969DA" stroke="#0969DA" stroke-width="1">
            <title>2026-07-26: 14 contributions</title>
        </circle>
        <circle cx="136.2" cy="24" r="3.2"
                fill="#0969DA" stroke="#0969DA" stroke-width="1">
            <title>2026-07-27: 20 contributions</title>
        </circle>
        <circle cx="163.6" cy="254" r="3.2"
                fill="#0969DA" stroke="#0969DA" stroke-width="1">
            <title>2026-07-28: 0 contributions</title>
        </circle>
        <circle cx="191" cy="162" r="3.2"
                fill="#0969DA" stroke="#0969DA" stroke-width="1">
            <title>2026-07-29: 8 contributions</title>
        </circle>
        <circle cx="218.4" cy="93" r="3.2"
                fill="#0969DA" stroke="#0969DA" stroke-width="1">
            <title>2026-07-30: 14 contributions</title>
        </circle>
        <circle cx="245.8" cy="139" r="3.2"
                fill="#0969DA" stroke="#0969DA" stroke-width="1">
            <title>2026-07-31: 10 contributions</title>
        </circle>
        <circle cx="273.2" cy="254" r="3.2"
                fill="#0969DA" stroke="#0969DA" stroke-width="1">
            <title>2026-08-01: 0 contributions</title>
        </circle>
        <circle cx="300.6" cy="254" r="3.2"
                fill="#0969DA" stroke="#0969DA" stroke-width="1">
            <title>2026-08-02: 0 contributions</title>
        </circle>
        <circle cx="328" cy="254" r="3.2"
                fill="#0969DA" stroke="#0969DA" stroke-width="1">
            <title>2026-08-03: 0 contributions</title>
        </circle>
        <circle cx="355.4" cy="242.5" r="3.2"
                fill="#0969DA" stroke="#0969DA" stroke-width="1">
            <title>2026-08-04: 1 contribution</title>
        </circle>
        <circle cx="382.8" cy="254" r="3.2"
                fill="#0969DA" stroke="#0969DA" stroke-width="1">
            <title>2026-08-05: 0 contributions</title>
        </circle>
        <circle cx="410.2" cy="254" r="3.2"
                fill="#0969DA" stroke="#0969DA" stroke-width="1">
            <title>2026-08-06: 0 contributions</title>
        </circle>
        <circle cx="437.6" cy="219.5" r="3.2"
                fill="#0969DA" stroke="#0969DA" stroke-width="1">
            <title>2026-08-07: 3 contributions</title>
        </circle>
        <circle cx="465" cy="254" r="3.2"
                fill="#0969DA" stroke="#0969DA" stroke-width="1">
            <title>2026-08-08: 0 contributions</title>
        </circle>
        <circle cx="492.4" cy="254" r="3.2"
                fill="#0969DA" stroke="#0969DA" stroke-width="1">
            <title>2026-08-09: 0 contributions</title>
        </circle>
        <circle cx="519.8" cy="231" r="3.2"
                fill="#0969DA" stroke="#0969DA" stroke-width="1">
            <title>2026-08-10: 2 contributions</title>
        </circle>
        <circle cx="547.2" cy="254" r="3.2"
                fill="#0969DA" stroke="#0969DA" stroke-width="1">
            <title>2026-08-11: 0 contributions</title>
        </circle>
        <circle cx="574.6" cy="254" r="3.2"
                fill="#0969DA" stroke="#0969DA" stroke-width="1">
            <title>2026-08-12: 0 contributions</title>
        </circle>
        <circle cx="602" cy="208" r="3.2"
                fill="#0969DA" stroke="#0969DA" stroke-width="1">
            <title>2026-08-13: 4 contributions</title>
        </circle>
        <circle cx="629.4" cy="254" r="3.2"
                fill="#0969DA" stroke="#0969DA" stroke-width="1">
            <title>2026-08-14: 0 contributions</title>
        </circle>
        <circle cx="656.8" cy="242.5" r="3.2"
                fill="#0969DA" stroke="#0969DA" stroke-width="1">
            <title>2026-08-15: 1 contribution</title>
        </circle>
        <circle cx="684.2" cy="254" r="3.2"
                fill="#0969DA" stroke="#0969DA" stroke-width="1">
            <title>2026-08-16: 0 contributions</title>
        </circle>
        <circle cx="711.6" cy="254" r="3.2"
                fill="#0969DA" stroke="#0969DA" stroke-width="1">
            <title>2026-08-17: 0 contributions</title>
        </circle>
        <circle cx="739" cy="231" r="3.2"
                fill="#0969DA" stroke="#0969DA" stroke-width="1">
            <title>2026-08-18: 2 contributions</title>
        </circle>
        <circle cx="766.4" cy="173.5" r="3.2"
                fill="#0969DA" stroke="#0969DA" stroke-width="1">
            <title>2026-08-19: 7 contributions</title>
        </circle>
        <circle cx="793.8" cy="231" r="3.2"
                fill="#0969DA" stroke="#0969DA" stroke-width="1">
            <title>2026-08-20: 2 contributions</title>
        </circle>
        <circle cx="821.2" cy="208" r="3.2"
                fill="#0969DA" stroke="#0969DA" stroke-width="1">
            <title>2026-08-21: 4 contributions</title>
        </circle>
        <circle cx="848.6" cy="219.5" r="3.2"
                fill="#0969DA" stroke="#0969DA" stroke-width="1">
            <title>2026-08-22: 3 contributions</title>
        </circle>
        <circle cx="876" cy="150.5" r="3.2"
                fill="#0969DA" stroke="#0969DA" stroke-width="1">
            <title>2026-08-23: 9 contributions</title>
        </circle>
        <text x="54" y="284" text-anchor="middle"
                  fill="#57606A" font-size="12">Jul 24</text>
        <text x="245.8" y="284" text-anchor="middle"
                  fill="#57606A" font-size="12">Jul 31</text>
        <text x="465" y="284" text-anchor="middle"
                  fill="#57606A" font-size="12">Aug 8</text>
        <text x="684.2" y="284" text-anchor="middle"
                  fill="#57606A" font-size="12">Aug 16</text>
        <text x="876" y="284" text-anchor="middle"
                  fill="#57606A" font-size="12">Aug 23</text>
    </g>
</svg>
